# xmcd
#
# Track frame offsets: 
#        150
#        22627
#        43790
#        69275
#        86494
#        106441
#        137394
#        158357
#        187827
#        216649
#        245644
#
# Disc length: 3325 seconds
#
# Revision: 0
# Processed by: cddbd v1.5.2PL0 Copyright (c) Steve Scherf et al.
# Submitted via: ExactAudioCopy v1.0b1
#
DISCID=850cfb0b
DTITLE=Brad Paisley - Hits Alive cd2
DYEAR=2010
DGENRE=Country
TTITLE0=Water
TTITLE1=American Saturday Night
TTITLE2=Waitin' on A Woman
TTITLE3=I'm Gonna Miss Her
TTITLE4=Mud on The Tires
TTITLE5=She's Everything
TTITLE6=Time Warp
TTITLE7=Letter To Me
TTITLE8=Then
TTITLE9=Alcohol
TTITLE10=Online (Reprise)
EXTD=
EXTT0=
EXTT1=
EXTT2=
EXTT3=
EXTT4=
EXTT5=
EXTT6=
EXTT7=
EXTT8=
EXTT9=
EXTT10=
PLAYORDER=
